<?xml version="1.0" encoding="iso-8859-1" standalone="no"?>
<!--<?xml-stylesheet href="./styles/allStyle.css" type="text/css"?>-->
<!DOCTYPE svg PUBLIC "-//W3C//DTD SVG 1.0//EN"
 "http://www.w3.org/TR/SVG/DTD/svg10.dtd" [
        <!ATTLIST svg
            a3:scriptImplementation CDATA #IMPLIED
            xmlns:a3 CDATA #IMPLIED>
        <!ATTLIST script
            a3:scriptImplementation CDATA #IMPLIED>
      
 ]>
<!-- Gibt Aufloesung für den Drucker an -->
<?AdobeSVGViewer resolution="300"?>
<!-- Das Geruest der ganzen Anwendung mit erzwungenem PluginScripting -->
<svg id="Atlas" xmlns="http://www.w3.org/2000/svg" xmlns:xlink="http://www.w3.org/1999/xlink" xmlns:a3="http://ns.adobe.com/AdobeSVGViewerExtensions/3.0/" a3:scriptImplementation="Adobe" xml:space="preserve" width="100%" height="100%" viewBox="0 0 805 600"  display="all" zoomAndPan="disable" >  
	<defs>
	<style type="text/css"><![CDATA[
		
		@media all 
		{
			
			/* menue Hintergrund */
			.menueBackground
			{
				fill:rgb(230,230,230);
				stroke:black;
				stroke-width:1;			
			}
			
			.copyrightBox 
			{
				fill:white;
				opacity:0.8;
				stroke:black;
			}
			
			.Error1 { font-size:12; fill:red;}
			
			.Error2 { font-size:9; fill:red;}
			.headline { font-size:12; pointer-events:none; }
		}
		
	 ]]></style>
     </defs>
			
<!--
###############################################################################################################################
##
##                Hintergrund fuer das Menue 
##
###############################################################################################################################
-->
<svg id="theMenue" width="390" height="600" x="420" y="0" viewBox="0 0 350 600">
	<rect rx="0.5%" ry="0.5%" class="menueBackground" y="10" x="10" width="350" height="580" />
</svg>
			
<!--
###############################################################################################################################
##
##                SVG-Ueberschrift und Logo -> VewBox == width and heigth * 1.1 for solution
##
###############################################################################################################################
-->
<svg id="header" width="350" height="35" x="449" y="10" viewBox="0 0 385 38,5">
	<rect id="logoPlatz" fill="white" stroke="none" width="98%" height="100%" transform="translate(5,3)"/>
	
    	<!-- Ueberschrift und Copyrightsymbol-->
	<g id="headline">
		<text x="12" y="18" class="headline">Wahlergebnisse und Strukturdaten</text>
		
	
				
		<text x="12" y="34" class="headline">zur Bundestagswahl 2005</text>
		<!--<text x="170" y="25" class="headline">final</text>-->
		<text x="150" y="29" font-size="14" class="headline2">&#169;</text>
		<a><circle id="copyright" r="5" cx="155" cy="26" opacity="0" onclick="showInfos('Copyright');zeigeKarteikarte('Info');"/></a>
	</g>
<!--	<image id="Logo" x="270" y="0" width="100px" height="40px" xlink:href="./images/wahllogo_kln.gif"/>		-->
<g id="Logo" transform="translate(260 5) scale(.55)">
		
	<g id="Ebene_1">
		<path fill="#1B1C20" d="M22.8,10.4c0.2-0.1,0.3-0.1,0.5,0c2.6-0.1,5.2-1.7,5.2-3.8c0-1.1-0.5-1.9-1.1-2.7c-0.4,0-0.7,0-0.9,0
			c-1.3,0-1.9-0.6-2-1.4c0.1-0.4,0.5-0.9,1.1-0.9c1.2,0,3.2,1.1,5.2,1.1c-0.2,0.1-0.5,0.2-0.9,0.5c1.2,1,2,2.4,2.3,3.8l3.2,5
			c0.5,0.7,1.6,2.3,3.2,3.6c-2,0-3.3,0-5-2.7l-1.6-2.5c-0.1,0.4-0.3,0.7-0.5,1.1l3.2,5c0.5,0.7,1.6,2.3,3.2,3.6
			c-1.9-0.1-3.2,0-5-2.7l-2.7-4.3c-0.1,0.3-0.3,0.5-0.7,0.7l3.8,6.1c0.6,0.8,1.7,2.4,3.4,3.6c-2,0-3.4,0.1-5-2.5l-3.8-5.9
			c-0.2,0.1-0.5,0.2-0.7,0.5l4.5,7c0.5,0.9,1.6,2.5,3.2,3.6c-1.9,0.1-3.2,0.1-5-2.5l-4.5-7.5c-0.4,0.2-0.7,0.3-0.9,0.5l5.2,8.4
			c0.6,0.7,1.7,2.3,3.4,3.6c-2.1-0.1-3.4,0-5-2.7l-5.7-8.8c-0.2,0-0.2,0-0.2,0c-0.2,0.5-0.3,0.9-0.2,1.4c-0.1,2.8,1.8,5.3,4.1,7.2
			c-0.2,0-0.4,0.1-0.7,0c-0.5,0.1-0.8,0-0.9,0c0.5,1.2,1.6,2.7,2,3.4c0.8-0.1,1.9-0.2,2.5-0.2c0.8,0,0.9,0.5,0.9,0.9
			c0,0.6-0.3,1.1-0.7,1.4c-0.1-0.3-0.4-0.7-1.8-0.7c0-0.1,0-0.1,0,0c0.3,0.4,1.6,1.4,1.6,2c0,0.6-0.6,1.4-1.4,1.4c0-0.1,0-0.3,0-0.5
			c0-0.6-0.6-1.3-1.1-1.8c0.1,0.1,0.1,0.1,0,0.2c0.1,1.6,0,2.3-0.9,2.3c-0.6,0-0.9-0.2-1.1-0.2c0.7-0.7,0.8-1.1,0.7-2
			c0.1-0.2,0.1-0.4,0-0.7c0.1-0.2,0.1-0.4,0-0.7c-0.2,0-0.4,0-0.7,0c0,0-1.4-0.1-1.6,0.7c-0.5-0.4-1-0.9-1.1-1.4
			c0.1-0.4,0.3-0.8,0.9-0.9c0.4,0.1,1.2,0.3,1.8,0.2c-0.1-0.4-0.9-1.6-1.6-2.5c-0.2,0.3-0.4,0.7-0.7,0.9c-0.1-0.5-0.5-2.3-1.4-3.4
			c-0.1,0.8-0.3,1.5-0.2,2.9c-0.1,3.9,0.9,6.6,2.7,7.2c-0.2,0.4-0.7,0.8-1.4,0.7c-0.6,0.1-1-0.7-1.4-1.4c-0.2,0.5-0.8,1.8-1.4,1.8
			c-0.6,0-1.2-1.4-1.4-1.8c-0.4,0.7-0.8,1.5-1.6,1.4c-0.5,0.1-1-0.3-1.4-0.7c2-0.6,2.9-3.4,2.9-7.2c0-1.4-0.1-2.2-0.2-2.9
			c-0.9,1.1-1.3,2.9-1.4,3.4c-0.3-0.2-0.5-0.6-0.7-0.9c-0.7,0.9-1.5,2.1-1.8,2.5c0.8,0,1.6-0.1,1.8-0.2c0.8,0.1,1,0.5,0.9,0.9
			c0.1,0.5-0.5,0.9-0.9,1.4c-0.3-0.8-1.7-0.7-1.6-0.7c-0.3,0-0.5,0-0.9,0c0.1,0.2,0.1,0.5,0,0.7c0.1,0.3,0.1,0.5,0,0.7
			c0.1,0.9,0.1,1.4,0.7,2c0,0-0.4,0.2-0.9,0.2c-0.9,0-1.1-0.7-1.1-2.3c0.1-0.1,0.1-0.1,0-0.2c-0.4,0.5-1,1.2-0.9,1.8
			c-0.1,0.2-0.1,0.3,0,0.5c-0.8,0.1-1.4-0.7-1.4-1.4c0-0.7,1.2-1.7,1.6-2c0-0.1-0.1-0.1-0.2,0c-1.2-0.1-1.5,0.4-1.6,0.7
			c-0.4-0.3-0.7-0.8-0.7-1.4c-0.1-0.4,0-0.9,0.7-0.9c0.8,0,1.8,0.1,2.5,0.2c0.6-0.7,1.8-2.2,2.3-3.4c-0.2,0-0.5,0.1-0.9,0
			c-0.3,0.1-0.5,0-0.7,0c2.2-1.9,4.1-4.4,4.1-7.2c0-0.4-0.1-0.9-0.2-1.4c-0.1,0-0.1,0-0.2,0L10.4,26c-1.6,2.7-3,2.7-5,2.7
			c1.7-1.3,2.8-2.9,3.4-3.6l5.2-8.4c-0.3-0.2-0.6-0.3-0.9-0.5l-4.5,7.5c-1.8,2.6-3.1,2.6-5.2,2.5c1.7-1.2,2.8-2.7,3.4-3.6l4.5-7
			c-0.3-0.3-0.5-0.4-0.7-0.5l-3.8,5.9c-1.7,2.5-3,2.5-5,2.5c1.6-1.3,2.7-2.8,3.2-3.6l3.8-6.1c-0.2-0.2-0.4-0.4-0.7-0.7l-2.7,4.3
			c-1.6,2.7-2.9,2.7-5,2.7c1.7-1.3,2.8-2.9,3.4-3.6l3.2-5c-0.2-0.4-0.4-0.7-0.5-1.1L5,12.9c-1.7,2.7-3.1,2.7-5,2.7
			c1.6-1.3,2.7-2.9,3.2-3.6l3.2-5c0.2-1.5,1-2.9,2.3-3.8C8.1,3,7.8,2.8,7.7,2.8c1.9-0.1,3.9-1.1,5-1.1c0.8,0,1.2,0.5,1.1,0.9
			c0.1,0.7-0.6,1.3-1.8,1.4c-0.2,0-0.6,0-0.9,0c-0.7,0.8-1.2,1.6-1.1,2.7c-0.1,2.1,2.5,3.8,5.2,3.8c0.1-0.1,0.2-0.1,0.5,0
			c0.4-1.8,1.5-2.9,2.5-4.1C17,6,15.8,5,15.8,4.6c-0.1,0,0-0.1,0,0c0.1-0.1,2.1,0.6,2.3,0.7c0.1,0,0.1,0,0.2,0
			c0.2-0.1,0.4-0.5,0.5-0.5c-0.3-0.1-1.5-0.3-2.5-0.7c-0.6-0.1-0.9-0.6-0.9-0.7c0-0.1,0-0.1,0,0c0.2-0.1,1,0.3,2.3,0.2
			c0.4,0.1,0.5,0.1,0.9,0C18.2,3,17.7,2.4,17,2.3c-0.2,0.1-0.8,0.2-1.1,0.5c-0.4-0.5-0.7-1.1-0.7-1.6c-0.1-0.3,0.4-0.8,1.6-0.9
			c0.3,0.1,0.7,0.1,0.9,0.2c0.3,0,0.5,0,0.7,0c0,0.1,0,0,0,0c0-0.2,0.1-0.4,0.7-0.5c1,0.1,2,0.4,3.4,0.5c0.2-0.1,0.4-0.1,0.7-0.2
			c-0.1,0.3-0.5,0.7-0.9,0.9c0.3,0.3,0.8,1,0.9,2c-0.1,1.7-1.2,3-1.1,4.7C21.9,9,22.6,9.8,22.8,10.4z M19.9,2.3
			c0.9,0.2,1.5-0.9,0.7-1.1c0.1,0.4-0.5,0.7-0.5,0.7c0,0-0.3-0.5,0-0.9c-0.5-0.2-0.6,0.1-0.7,0.5C19.7,1.7,19.8,2,19.9,2.3z M19,4.1
			c0.3-0.3,0.5-0.8,0.5-1.4c0.1-1.4-1.1-2-2.7-2c-0.8,0-1.2,0.3-1.1,0.5c-0.1,0.3,0.2,0.9,0.2,1.1C16.2,2.1,16.7,2,17,2.1
			C18.1,2,18.9,3.2,19,4.1z M9,6.6C9,5.3,9.9,4.3,10.4,3.7c-0.1,0-0.2-0.1-0.5,0C9.6,4,8.2,5.5,8.1,7.3c0.1,3.3,3.4,6.3,7.2,6.3
			c-0.1-0.4-0.2-0.7-0.2-1.1c0.1-0.3,0.1-0.5,0-0.7C11.9,11.7,9,9.4,9,6.6z M15.6,26.3c-0.2-0.4-0.3-0.6-0.7-0.7
			c-0.2,0-0.3,0.1-0.5,0c-0.5,1.3-2.2,3.7-2.5,4.1c-0.7-0.2-1.8-0.3-2.7-0.2c-0.1-0.1-0.4-0.1-0.5,0.5C8.9,30.1,9,30.6,9,30.8
			c0.5-0.5,1.1-0.6,1.8-0.7c0.4,0,0.8,0.2,0.9,0.2c-1,1-1.9,1.8-2,2.3c0.1,0.4,0.4,0.8,0.7,0.9c0-0.8,0.9-1.9,1.8-2.5
			c-0.1,0.1,0,0.5,0,0.9c0,1.6,0.1,1.9,0.7,2c0.2-0.1,0.4-0.1,0.5-0.2c-0.3-0.3-0.5-0.8-0.5-1.8c0-0.2,0-0.5,0-0.7
			c0-0.4-0.1-0.7,0-0.9c0.1-0.1,0.7-0.1,1.1-0.2c0.8,0.1,1.3,0.2,1.6,0.5c0.3-0.1,0.6-0.5,0.7-0.7c-0.1-0.4-0.3-0.5-0.7-0.5
			c-0.3,0-0.7,0.1-2.3,0.2C13.7,28.7,14.6,27.5,15.6,26.3z M25.1,29.7c-1.6-0.1-2-0.2-2.5-0.2c-0.2,0-0.4,0-0.5,0.5
			c0,0.2,0.3,0.6,0.7,0.7c0.3-0.3,0.8-0.4,1.6-0.5c0.4,0.1,1,0.2,1.1,0.2c0,0.2,0,0.5,0,0.9c0,0.2,0,0.5,0,0.7c0,1-0.2,1.5-0.5,1.8
			c0,0.1,0.2,0.1,0.5,0.2c0.5-0.1,0.7-0.4,0.7-2c0-0.4,0-0.8,0-0.9c0.9,0.6,1.7,1.7,1.8,2.5c0.2-0.1,0.5-0.5,0.5-0.9
			c0.1-0.5-0.9-1.3-1.8-2.3c0.1-0.1,0.4-0.2,0.7-0.2c0.9,0,1.5,0.2,1.8,0.7c0.2-0.2,0.3-0.7,0.5-0.9c-0.1-0.5-0.4-0.5-0.7-0.5
			c-0.7-0.1-1.8,0.1-2.5,0.2c-0.3-0.4-2.1-2.7-2.5-4.1c-0.2,0.1-0.3,0-0.5,0c-0.4,0-0.5,0.3-0.7,0.7C23.8,27.5,24.7,28.7,25.1,29.7z
			 M30.3,7.3c-0.1-1.8-1.5-3.3-2-3.6c0-0.1-0.1,0-0.2,0c0.5,0.6,1.4,1.6,1.4,2.9c0,2.8-2.9,5.1-6.1,5.2c0,0.2,0,0.5,0,0.7
			c0,0.4,0,0.8,0,1.1C26.9,13.5,30.2,10.5,30.3,7.3"/>
		<g>
			<path fill="#1B1C20" d="M71.6,12.5c-1,1-2.2,1.7-4.3,1.7h-3.4V1.4H67c2.2-0.1,3.6,0.4,4.8,1.9c0.7,1.2,1.1,2.6,1,4.3
				C72.9,9.8,72.3,11.3,71.6,12.5z M69.9,3.8c-0.6-0.8-1.4-1.1-2.6-1h-1.4v9.8h1.4c1.4-0.1,2.4-0.4,2.9-1.4c0.5-0.9,0.8-2,0.7-3.4
				C70.9,6.2,70.7,4.8,69.9,3.8"/>
			<path fill="#1B1C20" d="M76.9,9.8v0.2c-0.1,0.8,0.1,1.4,0.2,1.9c0.6,0.7,1.3,1,2.2,1c0.9,0.1,1.7-0.2,2.4-0.7l0.5,1
				c-0.8,0.7-1.9,1.1-3.1,1.2c-2.5-0.1-4.1-1.9-4.1-5c0-1.6,0.3-2.6,1-3.6c0.8-0.8,1.8-1.2,2.9-1.2c1.1,0,1.9,0.3,2.6,1
				c0.7,0.9,1,1.9,1,4.1c0.1,0,0.1,0.1,0,0.2H76.9z M80.2,6.5c-0.4-0.4-0.9-0.6-1.4-0.7c-1.3,0.1-2,1.1-1.9,2.9h3.8
				C80.7,7.7,80.5,6.9,80.2,6.5"/>
			<path fill="#1B1C20" d="M89.1,6.2c-0.2,0-0.3,0-0.5,0c-1,0-1.9,0.9-1.9,1.9v6H85v-7c0-1-0.2-1.6-0.5-2.2l1.7-0.5
				c0.2,0.3,0.4,1,0.5,1.4v0.2c0.6-1.2,1.4-1.7,2.4-1.7c0.2,0,0.5,0,0.7,0L89.1,6.2"/>
			<path fill="#1B1C20" d="M69.9,34.1c-0.6,0.1-1.3,0.1-1.9,0.2h-4.1v-13h2.9c2.1,0.1,2.7,0.1,3.4,0.5c1.2,0.7,1.8,1.6,1.9,2.6
				c-0.1,1.4-0.9,2.5-2.4,2.9c1.9,0.5,2.8,1.7,2.9,3.4C72.5,32.5,71.4,33.6,69.9,34.1z M68.7,23c-0.2-0.1-0.6-0.1-1.2,0h-1.7v3.8
				h1.9c1.2-0.1,1.5-0.3,1.9-0.7c0.2-0.4,0.4-0.9,0.5-1.2C70,24,69.5,23.3,68.7,23z M69.2,28.3c-0.4,0-0.7,0-1.4,0h-1.9v4.6h2.4
				c1.1-0.1,2.3-0.7,2.4-2.4C70.5,29.4,70,28.6,69.2,28.3"/>
			<path fill="#1B1C20" d="M81.2,34.5c-0.3-0.4-0.6-0.7-0.7-1.4c-0.8,1-1.7,1.4-2.9,1.4c-1.1,0-2.1-0.6-2.4-1.4
				c-0.2-0.4-0.3-0.9-0.2-1.4v-6.7l1.7-0.2v6.5c0,0.9,0.1,1.2,0.5,1.4c0.1,0.3,0.6,0.5,1,0.5c0.9,0,1.8-0.6,2.2-1.4v-6.7l1.7-0.2v7
				c0,0.9,0.2,1.6,0.5,1.9L81.2,34.5"/>
			<path fill="#1B1C20" d="M90.3,34.3v-6.5c0-0.7-0.1-1-0.2-1.4c-0.2-0.1-0.6-0.3-1-0.2c-0.7,0-1.7,0.5-2.4,1.2v7H85v-7
				c0.1-1.2,0-1.6-0.2-2.2l1.7-0.5c0.1,0.4,0.2,0.8,0.2,1.4c0.5-0.5,0.8-0.8,1.2-1c0.5-0.4,1.1-0.5,1.7-0.5c1,0,1.9,0.5,2.2,1.2
				c0.2,0.4,0.3,0.8,0.2,1.2v7.2H90.3"/>
			<path fill="#1B1C20" d="M100.6,34.3c-0.1-0.4-0.1-0.5-0.2-1c-0.6,0.7-1.3,1-2.4,1c-2.3,0-3.7-1.7-3.6-4.6
				c-0.1-2.1,0.6-3.7,1.9-4.6c0.5-0.3,1.1-0.5,1.7-0.5c1,0,1.7,0.3,2.4,1.2c0-0.4-0.1-1.1,0-1.7v-3.6l1.7,0.2v10.3
				c-0.1,1.4,0,2.4,0.2,3.1H100.6z M100.4,26.9c-0.6-0.5-1.2-0.8-2.2-0.7c-0.6,0-1.2,0.3-1.4,1c-0.4,0.6-0.6,1.3-0.5,2.4
				c-0.1,1.9,0.1,2.4,0.7,2.9c0.2,0.4,0.7,0.5,1.2,0.5c1.1,0.1,1.7-0.5,2.2-1V26.9"/>
			<path fill="#1B1C20" d="M106.4,30v0.2c0,0.7,0.1,1.3,0.5,1.7c0.4,0.8,1.1,1.2,1.9,1.2c1,0,1.7-0.3,2.4-1l0.7,1
				c-1,0.9-2.1,1.3-3.4,1.2c-2.5,0.1-4.1-1.8-4.1-4.8c0-1.6,0.3-2.7,1.2-3.6c0.7-0.9,1.6-1.3,2.6-1.2c1.1-0.1,1.9,0.2,2.6,1
				c0.8,0.8,1.1,1.8,1.2,3.8c-0.1,0.2-0.1,0.3,0,0.5H106.4z M109.7,26.6c-0.4-0.4-0.8-0.7-1.4-0.7c-1.3,0-1.9,1.1-1.9,2.6h3.8
				C110.2,27.8,110,27,109.7,26.6"/>
			<path fill="#1B1C20" d="M117.2,34.5c-1.2-0.1-2.5-0.4-3.6-1l0.7-1.4c0.8,0.6,1.9,1,2.9,1c1.1,0.1,1.8-0.5,1.7-1.4
				c0.1-0.8-0.4-1.3-1.4-1.4l-1.2-0.2c-1.4-0.3-2.2-1.2-2.2-2.6c-0.1-1.6,1.3-2.8,3.4-2.9c1.1,0,2.1,0.4,2.9,0.7l-0.5,1.2
				c-1-0.3-1.7-0.6-2.4-0.5c-1-0.1-1.6,0.5-1.7,1.2c0.1,0.8,0.4,1.1,1.4,1.4l1.2,0.2c1.7,0.3,2.4,1.3,2.4,2.6
				C120.7,33.2,119.3,34.5,117.2,34.5"/>
			<path fill="#1B1C20" d="M131.6,34.3h-1.7l-1.2-5c-0.3-0.7-0.7-2.2-0.7-2.2c0,0-0.4,1.5-0.5,1.9l-1.4,5.3h-1.7l-2.4-9.4l1.7-0.2
				l1.2,5.3c0.2,0.9,0.4,2.2,0.5,2.2c0,0,0.2-1.3,0.5-2.2l1.4-5h1.7l1.2,5c0.4,0.9,0.6,2.1,0.7,2.2c0,0,0.3-1.5,0.5-2.2l1.2-5h1.7
				L131.6,34.3"/>
			<path fill="#1B1C20" d="M142.4,34.5c-0.7-0.2-1.1-0.6-1.4-1.2c-0.1,0.2-0.9,1.1-2.6,1.2c-1.8-0.1-2.9-1-2.9-2.9
				c0-2.1,1.7-3.2,4.8-3.1c0.1-0.1,0.3-0.1,0.5,0v-0.7c0.1-1.1-0.1-1.8-1.4-1.9c-0.9,0.1-2,0.6-2.9,1.2l-0.7-1.2
				c0.9-0.6,2.1-1.3,3.8-1.2c1.4-0.1,2.4,0.4,2.9,1.4c0,0.4,0.1,0.7,0,1.7c0.1,0.6,0,2,0,3.4c0,1.3,0,1.8,0.7,2.2L142.4,34.5z
				 M140.2,29.5c-1.3,0.1-2.1,0.3-2.4,0.7c-0.4,0.4-0.6,0.8-0.5,1.4c-0.1,1,0.4,1.6,1.4,1.7c0.7-0.1,1.5-0.6,1.9-1.4v-2.2
				C140.5,29.6,140.3,29.6,140.2,29.5"/>
			<path fill="#1B1C20" d="M151,34.3v-6.5c-0.1-0.7-0.2-1.1-0.5-1.2c-0.1-0.3-0.5-0.5-1-0.5c-0.8,0-1.7,0.5-2.4,1.4v6.7h-1.7V22.8
				c-0.1-0.7-0.2-1.3-0.2-1.9l1.7-0.2c0.1,0.5,0.2,1.2,0.2,2.2v2.2c-0.1,0.2-0.1,0.6,0,1.2c0.3-0.4,0.5-0.6,1-0.7
				c0.6-0.6,1.2-0.7,1.9-0.7c1.1,0,2.1,0.5,2.4,1.4c0.1,0.4,0.1,0.6,0.2,1.4v6.7H151"/>
			<path fill="#1B1C20" d="M157.3,34.3c-0.6,0.1-1.1-0.1-1.4-0.7c-0.3-0.3-0.3-0.6-0.2-1.4v-8.4c-0.1-1.4-0.1-2.1-0.2-2.9l1.7-0.2
				c0.2,0.6,0.2,1.5,0.2,2.6v8.4c0,0.9,0,1.2,0.2,1.4c0.1,0,0.3,0.1,0.5,0l0.5,1C158,34.3,157.7,34.4,157.3,34.3"/>
			<path fill="#1B1C20" d="M162.1,34.3c-0.6,0.1-1-0.1-1.4-0.7c-0.2-0.3-0.3-0.6-0.2-1.4v-8.4c0-1.4-0.1-2.1-0.2-2.9l1.9-0.2
				c0.1,0.6,0.1,1.5,0,2.6v8.4c0.1,0.9,0.1,1.2,0.2,1.4c0.2,0,0.4,0.1,0.7,0l0.2,1C162.9,34.3,162.6,34.4,162.1,34.3"/>
			<path fill="#1B1C20" d="M166.6,30v0.2c-0.1,0.7,0,1.3,0.2,1.7c0.5,0.8,1.3,1.2,2.2,1.2c0.9,0,1.6-0.3,2.4-1l0.5,1
				c-0.8,0.9-1.9,1.3-3.1,1.2c-2.6,0.1-4.2-1.8-4.1-4.8c-0.1-1.6,0.2-2.7,1-3.6c0.8-0.9,1.7-1.3,2.9-1.2c1-0.1,1.9,0.2,2.4,1
				c0.9,0.8,1.2,1.8,1.2,3.8c0,0.2,0,0.3,0,0.5H166.6z M169.7,26.6c-0.2-0.4-0.7-0.7-1.2-0.7c-1.3,0-2,1.1-1.9,2.6h3.8
				C170.4,27.8,170.2,27,169.7,26.6"/>
			<path fill="#1B1C20" d="M175.5,23.3c-0.6,0-1.1-0.6-1.2-1.2c0.1-0.7,0.6-1.3,1.2-1.2c0.7-0.1,1.3,0.5,1.2,1.2
				C176.8,22.7,176.2,23.3,175.5,23.3z M174.8,34.3v-9.4l1.7-0.2v9.6H174.8"/>
			<path fill="#1B1C20" d="M182.9,26.1h-1.7v5.5c-0.1,1.2,0.2,1.5,1.2,1.4c0.2,0.1,0.5,0.1,0.7,0l0.2,1c-0.5,0.3-1.1,0.4-1.7,0.5
				c-0.6-0.1-1.3-0.3-1.7-0.5c-0.3-0.4-0.6-0.6-0.5-1.9v-6h-1.2v-1.2h1.2c-0.1-0.8-0.1-1.7,0-2.4l1.7-0.5c0,0.7-0.1,1.9,0,2.9h2.2
				L182.9,26.1"/>
			<path fill="#1B1C20" d="M186.8,30v0.2c-0.1,0.7,0,1.3,0.2,1.7c0.6,0.8,1.3,1.2,2.2,1.2c0.9,0,1.7-0.3,2.4-1l0.5,1
				c-0.8,0.9-1.9,1.3-3.1,1.2c-2.6,0.1-4.1-1.8-4.1-4.8c-0.1-1.6,0.3-2.7,1-3.6c0.8-0.9,1.8-1.3,2.9-1.2c1.1-0.1,1.9,0.2,2.6,1
				c0.7,0.8,1,1.8,1,3.8c0.1,0.2,0.1,0.3,0,0.5H186.8z M190.1,26.6c-0.4-0.4-0.9-0.7-1.4-0.7c-1.3,0-2,1.1-1.9,2.6h3.8
				C190.6,27.8,190.4,27,190.1,26.6"/>
			<path fill="#1B1C20" d="M199,26.4c-0.2,0-0.3-0.1-0.5,0c-1-0.1-1.9,0.8-1.9,1.9v6h-1.7v-7c0-1.1-0.2-1.7-0.5-2.4l1.7-0.2
				c0.2,0.3,0.4,0.9,0.5,1.4c0.6-1,1.4-1.5,2.4-1.4c0.2-0.1,0.4-0.1,0.5,0L199,26.4"/>
		</g>
		<g>
			<path d="M47.4,0h4.8v19.3h-4.8V0z"/>
			<path fill="#FF0000" d="M47.4,19.1h4.8v19.5h-4.8V19.1z"/>
			<path fill="#E0B700" d="M47.4,38.6h4.8v19.3h-4.8V38.6z"/>
		</g>
	</g>
</g>
 
</svg>
<!--
###############################################################################################################################
##
##                Bei Falschem Plugin
##
###############################################################################################################################
-->
<svg id="PluginError" xmlns:a3="http://ns.adobe.com/AdobeSVGViewerExtensions/3.0/" a3:scriptImplementation="Adobe" xml:space="preserve" width="100%" height="100%" viewBox="0 0 805 600" display="all">
	<!-- Anezeigeflaeche fuer Infotexte-->
	<g id="infoScreen" class="copyrightBox" fill="grey">
	        <rect rx="0.5%" ry="0.5%" x="300" y="220" width="450" height="170"  />
	</g>
	
      	<text class="Error1" x="320" y="250">Sie verwenden nicht das notwendige SVG-Plugin.</text>
	<text class="Error2" x="320" y="300">Bitte laden Sie es unter folgender Adresse die Version 3 herunter und installieren es.</text>
	<text class="Error2" x="320" y="320">Beachten Sie das dafür Administrationsrechte erforderlich sind.</text>
	<a xlink:href="http://www.adobe.com/svg/viewer/install/main.html">
		<text class="Error2" x="320" y="340">http://www.adobe.com/svg/viewer/install/main.html</text>
	</a>
</svg>
</svg>
